<svg width="155" height="32" viewBox="0 0 155 32" fill="none" xmlns="http://www.w3.org/2000/svg">
<path d="M0.175781 2.65234C0.433594 2.76953 0.738281 2.85156 1.08984 2.89844C1.46484 2.94531 1.81641 2.96875 2.14453 2.96875C2.54297 2.96875 2.95312 2.95703 3.375 2.93359C3.79688 2.91016 4.3125 2.86328 4.92188 2.79297C5.41406 2.74609 6.02344 2.6875 6.75 2.61719C7.47656 2.54688 8.28516 2.45313 9.17578 2.33594C8.84766 2.5 8.56641 2.67578 8.33203 2.86328C8.09766 3.05078 7.89844 3.23828 7.73438 3.42578C7.54688 3.63672 7.39453 3.84766 7.27734 4.05859C7.11328 4.33984 6.89062 4.83203 6.60938 5.53516C6.35156 6.21484 6.08203 6.97656 5.80078 7.82031C5.54297 8.66406 5.30859 9.51953 5.09766 10.3867C4.91016 11.2539 4.80469 11.9922 4.78125 12.6016C4.75781 13.1172 4.73438 13.7031 4.71094 14.3594C4.6875 14.9219 4.66406 15.6133 4.64062 16.4336C4.61719 17.2539 4.59375 18.1914 4.57031 19.2461C6.25781 18.0273 7.55859 17.0547 8.47266 16.3281C9.38672 15.5781 10.0547 15.0039 10.4766 14.6055C10.9688 14.1602 11.2617 13.8438 11.3555 13.6562C11.332 13.5156 11.2734 13.3633 11.1797 13.1992C11.0625 13.0586 10.8984 12.8945 10.6875 12.707C10.4766 12.5195 10.1602 12.3086 9.73828 12.0742C10.3477 12.1445 10.875 12.1914 11.3203 12.2148C11.7891 12.2383 12.1875 12.2617 12.5156 12.2852C12.8906 12.3086 13.2188 12.3086 13.5 12.2852C13.8047 12.2852 14.1797 12.2734 14.625 12.25C15.3984 12.2266 16.5938 12.1914 18.2109 12.1445C16.6406 12.9648 15.3984 13.668 14.4844 14.2539C13.9688 14.582 13.5117 14.8867 13.1133 15.168C12.7148 15.4727 12.3047 15.7891 11.8828 16.1172C11.5078 16.3984 11.0742 16.7266 10.582 17.1016C10.1133 17.4766 9.64453 17.875 9.17578 18.2969C9.99609 19.6328 10.7109 20.7344 11.3203 21.6016C11.9531 22.4688 12.4805 23.1719 12.9023 23.7109C13.3945 24.3438 13.8281 24.8477 14.2031 25.2227C14.5781 25.5742 15.0703 25.9727 15.6797 26.418C16.1953 26.8164 16.8633 27.2852 17.6836 27.8242C18.5273 28.3398 19.5469 28.9375 20.7422 29.6172C20.1328 29.5 19.5469 29.418 18.9844 29.3711C18.4219 29.3477 17.9414 29.3477 17.543 29.3711C17.0508 29.3945 16.6055 29.4414 16.207 29.5117C15.7852 29.6055 15.3164 29.7227 14.8008 29.8633C14.3555 29.9805 13.8281 30.1328 13.2188 30.3203C12.6328 30.5312 11.9883 30.8008 11.2852 31.1289C11.7305 30.8008 12.0586 30.4844 12.2695 30.1797C12.5039 29.8984 12.668 29.6641 12.7617 29.4766C12.8555 29.2422 12.8906 29.043 12.8672 28.8789C12.75 28.6445 12.4805 28.1641 12.0586 27.4375C11.6602 26.8281 11.0742 25.9375 10.3008 24.7656C9.52734 23.5938 8.42578 22 6.99609 19.9844C6.92578 20.0078 6.80859 20.0781 6.64453 20.1953C6.50391 20.3125 6.29297 20.4766 6.01172 20.6875C5.73047 20.875 5.35547 21.1562 4.88672 21.5312L5.83594 27.6836C5.625 27.7773 5.39062 27.8594 5.13281 27.9297C4.89844 28 4.67578 28.0586 4.46484 28.1055C4.20703 28.1758 3.94922 28.2227 3.69141 28.2461C3.43359 28.2695 3.12891 28.3164 2.77734 28.3867C2.47266 28.4336 2.10938 28.4922 1.6875 28.5625C1.26562 28.6562 0.785156 28.7617 0.246094 28.8789C0.550781 28.668 0.796875 28.4219 0.984375 28.1406C1.17188 27.8828 1.32422 27.6367 1.44141 27.4023C1.55859 27.1445 1.66406 26.875 1.75781 26.5938C1.80469 26.3594 1.85156 25.75 1.89844 24.7656C1.96875 23.7812 2.02734 22.6094 2.07422 21.25C2.12109 19.8672 2.15625 18.3906 2.17969 16.8203C2.22656 15.25 2.25 13.7734 2.25 12.3906C2.25 10.9844 2.23828 9.76562 2.21484 8.73438C2.19141 7.67969 2.14453 7 2.07422 6.69531C1.95703 6.32031 1.81641 5.92188 1.65234 5.5C1.51172 5.125 1.3125 4.70313 1.05469 4.23438C0.820312 3.74219 0.527344 3.21484 0.175781 2.65234ZM16.9453 12.2852L23.4141 12.3555C23.0391 13.7852 22.7578 15.0039 22.5703 16.0117C22.4062 17.0195 22.3008 17.8633 22.2539 18.543C22.1602 19.3164 22.1367 19.9727 22.1836 20.5117C22.2539 21.0039 22.3711 21.5312 22.5352 22.0938C22.6758 22.5625 22.8867 23.1016 23.168 23.7109C23.4492 24.3203 23.8242 24.9297 24.293 25.5391C24.0117 25.4453 23.707 25.375 23.3789 25.3281C23.0508 25.2812 22.7461 25.2461 22.4648 25.2227C22.1367 25.1992 21.8086 25.1992 21.4805 25.2227C21.1523 25.2461 20.7891 25.2812 20.3906 25.3281C20.0625 25.375 19.6641 25.4336 19.1953 25.5039C18.7266 25.5742 18.2344 25.668 17.7188 25.7852C18.0703 24.7305 18.3398 23.8164 18.5273 23.043C18.7383 22.2695 18.8906 21.625 18.9844 21.1094C19.0781 20.5 19.1367 20.0078 19.1602 19.6328C19.1602 19.1641 19.1602 18.6367 19.1602 18.0508C19.1602 17.4414 19.1602 16.8555 19.1602 16.293C19.1602 15.7305 19.1484 15.2383 19.125 14.8164C19.1016 14.3711 19.0547 14.0898 18.9844 13.9727L18.6328 13.6211C18.4922 13.5039 18.2812 13.3398 18 13.1289C17.7422 12.8945 17.3906 12.6133 16.9453 12.2852ZM19.4414 6.87109C19.9336 6.61328 20.4258 6.54297 20.918 6.66016C21.4336 6.77734 21.832 7 22.1133 7.32812C22.3945 7.65625 22.4883 8.04297 22.3945 8.48828C22.3242 8.93359 21.9492 9.36719 21.2695 9.78906C20.5898 10.1875 19.9922 10.3281 19.4766 10.2109C18.9609 10.0938 18.5977 9.84766 18.3867 9.47266C18.1758 9.09766 18.1406 8.66406 18.2812 8.17188C18.4219 7.65625 18.8086 7.22266 19.4414 6.87109ZM26.6484 24.1328C26.8125 23.3594 26.9297 22.6797 27 22.0938C27.0938 21.4844 27.1641 20.9805 27.2109 20.582C27.2578 20.1133 27.2812 19.7148 27.2812 19.3867C27.2578 18.9883 27.2344 18.5195 27.2109 17.9805C27.2109 17.418 27.1875 16.8672 27.1406 16.3281C27.1172 15.7656 27.082 15.2734 27.0352 14.8516C26.9883 14.4062 26.9297 14.0898 26.8594 13.9023C26.7656 13.7148 26.6367 13.5156 26.4727 13.3047C26.1445 12.9062 25.6641 12.5195 25.0312 12.1445C25.5703 12.0273 26.0273 11.9336 26.4023 11.8633C26.8008 11.7695 27.1289 11.6875 27.3867 11.6172C27.668 11.5234 27.9141 11.4414 28.125 11.3711C28.3125 11.3008 28.5352 11.2305 28.793 11.1602C29.0039 11.1133 29.2617 11.0547 29.5664 10.9844C29.8711 10.9141 30.2227 10.832 30.6211 10.7383L30.5156 13.9375C31.2656 13.0469 32.0273 12.3789 32.8008 11.9336C33.5742 11.4883 34.3008 11.1719 34.9805 10.9844C35.7539 10.75 36.5156 10.6328 37.2656 10.6328C38.2031 10.6797 39.0703 10.832 39.8672 11.0898C40.6875 11.3477 41.3906 11.6523 41.9766 12.0039C42.5859 12.332 43.0781 12.6836 43.4531 13.0586C43.8281 13.4336 44.0508 13.7617 44.1211 14.043C44.4023 14.957 44.4727 15.8008 44.332 16.5742C44.1914 17.3242 44.0039 18.0625 43.7695 18.7891C43.5586 19.4922 43.3711 20.1953 43.207 20.8984C43.0664 21.6016 43.125 22.3633 43.3828 23.1836C43.4766 23.3945 43.5703 23.6055 43.6641 23.8164C43.7578 24.0039 43.875 24.1914 44.0156 24.3789C44.1562 24.5664 44.3203 24.7188 44.5078 24.8359C44.25 24.8125 43.9922 24.8008 43.7344 24.8008C43.4766 24.7773 43.2422 24.7539 43.0312 24.7305C42.7734 24.707 42.5391 24.6836 42.3281 24.6602C42.0938 24.6367 41.7773 24.625 41.3789 24.625C40.6992 24.625 39.6445 24.6602 38.2148 24.7305C38.4258 24.2383 38.5898 23.8281 38.707 23.5C38.8477 23.1484 38.9648 22.8672 39.0586 22.6562C39.1523 22.3984 39.2227 22.1992 39.2695 22.0586C39.5508 21.3789 39.7148 20.6055 39.7617 19.7383C39.832 18.8711 39.7734 17.9922 39.5859 17.1016C39.5156 16.7969 39.3984 16.4336 39.2344 16.0117C39.0703 15.5898 38.8477 15.1797 38.5664 14.7812C38.3086 14.3828 37.9922 14.043 37.6172 13.7617C37.2656 13.4805 36.8555 13.3164 36.3867 13.2695C35.918 13.2227 35.3906 13.3398 34.8047 13.6211C34.2422 13.9023 33.6328 14.418 32.9766 15.168C32.4844 15.8008 32.0977 16.5742 31.8164 17.4883C31.5586 18.2617 31.3828 19.2344 31.2891 20.4062C31.1953 21.5547 31.3359 22.9023 31.7109 24.4492C31.3828 24.4023 31.0781 24.3789 30.7969 24.3789C30.5156 24.3555 30.2812 24.332 30.0938 24.3086C29.8594 24.2852 29.6484 24.2617 29.4609 24.2383C29.25 24.2383 29.0156 24.2266 28.7578 24.2031C28.5234 24.2031 28.2305 24.2031 27.8789 24.2031C27.5273 24.1797 27.1172 24.1562 26.6484 24.1328ZM56.0742 12.25C56.6836 12.25 57.3164 12.3672 57.9727 12.6016C58.6289 12.8125 59.2617 13.0938 59.8711 13.4453C60.4805 13.7734 61.0312 14.1367 61.5234 14.5352C62.0391 14.9102 62.4609 15.2734 62.7891 15.625C63.375 16.2578 63.7734 17.1133 63.9844 18.1914C64.2188 19.2461 64.2656 20.3359 64.125 21.4609C63.9844 22.5625 63.6562 23.6055 63.1406 24.5898C62.625 25.5742 61.9102 26.3008 60.9961 26.7695C60.3398 27.0977 59.6953 27.3555 59.0625 27.543C58.4297 27.7305 57.8203 27.8711 57.2344 27.9648C56.6484 28.0586 56.0977 28.1055 55.582 28.1055C55.0664 28.1055 54.6211 28.0938 54.2461 28.0703C53.543 28.0234 52.8047 27.7773 52.0312 27.332C51.2812 26.8867 50.5664 26.3359 49.8867 25.6797C49.2305 25.0234 48.668 24.3086 48.1992 23.5352C47.7305 22.7383 47.4492 21.9883 47.3555 21.2852C47.2148 20.3242 47.1914 19.3164 47.2852 18.2617C47.3789 17.207 47.7188 16.2344 48.3047 15.3438C48.9141 14.4531 49.8281 13.7148 51.0469 13.1289C52.2891 12.543 53.9648 12.25 56.0742 12.25ZM54.9141 25.8906C55.1719 25.9375 55.5234 25.8789 55.9688 25.7148C56.4141 25.5273 56.8477 25.2344 57.2695 24.8359C57.7148 24.4375 58.1016 23.9336 58.4297 23.3242C58.7812 22.6914 58.9922 21.9297 59.0625 21.0391C59.1328 20.1719 59.1328 19.375 59.0625 18.6484C59.0156 17.9219 58.9102 17.2891 58.7461 16.75C58.582 16.1875 58.3945 15.7305 58.1836 15.3789C57.9727 15.0273 57.75 14.7812 57.5156 14.6406C57.1172 14.4297 56.6367 14.2656 56.0742 14.1484C55.5117 14.0078 55.0312 14.0312 54.6328 14.2188C54.4453 14.3125 54.2109 14.5117 53.9297 14.8164C53.6484 15.1211 53.3672 15.5078 53.0859 15.9766C52.8047 16.4219 52.5469 16.9375 52.3125 17.5234C52.1016 18.1094 51.9492 18.7188 51.8555 19.3516C51.7617 19.9844 51.7383 20.6641 51.7852 21.3906C51.8555 22.1172 52.0078 22.8086 52.2422 23.4648C52.4766 24.0977 52.8047 24.6484 53.2266 25.1172C53.6719 25.5625 54.2344 25.8203 54.9141 25.8906ZM65.1094 2.79297C65.8594 2.81641 66.5156 2.82812 67.0781 2.82812C67.6406 2.80469 68.0977 2.79297 68.4492 2.79297H69.4688C69.7266 2.76953 70.043 2.75781 70.418 2.75781C70.7461 2.75781 71.1445 2.75781 71.6133 2.75781C72.082 2.75781 72.6211 2.76953 73.2305 2.79297C73.418 3.44922 73.6289 4.09375 73.8633 4.72656C74.1211 5.33594 74.3438 5.88672 74.5312 6.37891C74.7656 6.96484 75 7.51563 75.2344 8.03125C75.4688 8.54687 75.75 9.16797 76.0781 9.89453C76.3594 10.5039 76.6992 11.2539 77.0977 12.1445C77.4961 13.0117 77.9648 14.0078 78.5039 15.1328C78.7617 14.4062 78.9961 13.7383 79.207 13.1289C79.4414 12.5195 79.6406 11.9922 79.8047 11.5469C79.9922 11.0312 80.1445 10.5625 80.2617 10.1406C80.3789 9.71875 80.5078 9.20312 80.6484 8.59375C80.7656 8.07813 80.8945 7.45703 81.0352 6.73047C81.1992 6.00391 81.3633 5.16016 81.5273 4.19922C82.207 4.19922 82.8164 4.19922 83.3555 4.19922C83.8945 4.19922 84.3633 4.1875 84.7617 4.16406C85.207 4.16406 85.6055 4.15234 85.957 4.12891C86.332 4.12891 86.8359 4.10547 87.4688 4.05859C88.0078 4.01172 88.7227 3.97656 89.6133 3.95312C90.5273 3.90625 91.6523 3.84766 92.9883 3.77734C92.4961 4.12891 92.0977 4.48047 91.793 4.83203C91.5117 5.16016 91.2891 5.45312 91.125 5.71094C90.9375 6.01562 90.8203 6.30859 90.7734 6.58984C90.7266 6.82422 90.6797 7.36328 90.6328 8.20703C90.6094 9.05078 90.5742 10.0586 90.5273 11.2305C90.5039 12.3789 90.4805 13.6094 90.457 14.9219C90.457 16.2344 90.4688 17.4766 90.4922 18.6484C90.5156 19.8203 90.5508 20.8398 90.5977 21.707C90.668 22.5508 90.7617 23.0898 90.8789 23.3242C91.043 23.6055 91.2656 23.9336 91.5469 24.3086C91.8047 24.6367 92.1328 25.0117 92.5312 25.4336C92.9531 25.8555 93.5039 26.3242 94.1836 26.8398C93.1055 26.8867 92.2031 26.9219 91.4766 26.9453C90.7734 26.9688 90.1875 26.9922 89.7188 27.0156C89.1797 27.0391 88.7461 27.0508 88.418 27.0508C88.0664 27.0508 87.5859 27.0625 86.9766 27.0859C86.4375 27.1094 85.7227 27.1445 84.832 27.1914C83.9414 27.2148 82.793 27.2617 81.3867 27.332C81.7148 26.957 82.0195 26.582 82.3008 26.207C82.582 25.832 82.8164 25.4922 83.0039 25.1875C83.2383 24.8359 83.4375 24.4961 83.6016 24.168C83.7656 23.7227 83.8945 22.9141 83.9883 21.7422C84.082 20.7344 84.1523 19.293 84.1992 17.418C84.2461 15.5195 84.2461 12.9766 84.1992 9.78906C83.7539 10.5156 83.3555 11.2422 83.0039 11.9688C82.6758 12.6719 82.3828 13.3164 82.125 13.9023C81.8438 14.582 81.5859 15.2383 81.3516 15.8711C81.1172 16.5273 80.8711 17.2539 80.6133 18.0508C80.3789 18.7305 80.0977 19.5391 79.7695 20.4766C79.4648 21.4141 79.1133 22.4453 78.7148 23.5703L77.3789 23.6406C77.1914 22.7031 77.0039 21.8594 76.8164 21.1094C76.6289 20.3359 76.4414 19.6797 76.2539 19.1406C76.043 18.5078 75.832 17.9453 75.6211 17.4531C75.3867 16.9609 75.1289 16.4102 74.8477 15.8008C74.5898 15.2852 74.2734 14.6758 73.8984 13.9727C73.5469 13.2695 73.1367 12.4844 72.668 11.6172C72.4336 14.0078 72.293 15.9531 72.2461 17.4531C72.1992 18.9297 72.1992 20.0781 72.2461 20.8984C72.293 21.8828 72.3633 22.5977 72.457 23.043C72.5977 23.4414 72.8203 23.8867 73.125 24.3789C73.3828 24.8008 73.7344 25.3047 74.1797 25.8906C74.6484 26.4531 75.2461 27.0859 75.9727 27.7891C75.457 27.7891 74.918 27.7891 74.3555 27.7891C73.793 27.7891 73.2773 27.8008 72.8086 27.8242C72.2461 27.8477 71.6953 27.8594 71.1562 27.8594C70.5938 27.8828 69.9375 27.918 69.1875 27.9648C68.5312 28.0117 67.7461 28.0586 66.832 28.1055C65.918 28.1523 64.8633 28.2344 63.668 28.3516C64.1836 28.0234 64.6055 27.707 64.9336 27.4023C65.2617 27.0742 65.5195 26.7812 65.707 26.5234C65.9414 26.2188 66.1172 25.9141 66.2344 25.6094C66.3047 25.4219 66.3633 25.0117 66.4102 24.3789C66.4805 23.7461 66.5391 22.9727 66.5859 22.0586C66.6562 21.1445 66.7031 20.125 66.7266 19C66.7734 17.875 66.8086 16.7383 66.832 15.5898C66.8789 14.418 66.9141 13.2812 66.9375 12.1797C66.9609 11.0547 66.9727 10.0469 66.9727 9.15625C66.9961 8.24219 67.0078 7.48047 67.0078 6.87109C67.0078 6.26172 67.0078 5.875 67.0078 5.71094C66.9375 5.35938 66.832 5.00781 66.6914 4.65625C66.5742 4.35156 66.3867 4.03516 66.1289 3.70703C65.8711 3.37891 65.5312 3.07422 65.1094 2.79297ZM103.254 12.25C103.863 12.25 104.496 12.3672 105.152 12.6016C105.809 12.8125 106.441 13.0938 107.051 13.4453C107.66 13.7734 108.211 14.1367 108.703 14.5352C109.219 14.9102 109.641 15.2734 109.969 15.625C110.555 16.2578 110.953 17.1133 111.164 18.1914C111.398 19.2461 111.445 20.3359 111.305 21.4609C111.164 22.5625 110.836 23.6055 110.32 24.5898C109.805 25.5742 109.09 26.3008 108.176 26.7695C107.52 27.0977 106.875 27.3555 106.242 27.543C105.609 27.7305 105 27.8711 104.414 27.9648C103.828 28.0586 103.277 28.1055 102.762 28.1055C102.246 28.1055 101.801 28.0938 101.426 28.0703C100.723 28.0234 99.9844 27.7773 99.2109 27.332C98.4609 26.8867 97.7461 26.3359 97.0664 25.6797C96.4102 25.0234 95.8477 24.3086 95.3789 23.5352C94.9102 22.7383 94.6289 21.9883 94.5352 21.2852C94.3945 20.3242 94.3711 19.3164 94.4648 18.2617C94.5586 17.207 94.8984 16.2344 95.4844 15.3438C96.0938 14.4531 97.0078 13.7148 98.2266 13.1289C99.4688 12.543 101.145 12.25 103.254 12.25ZM102.094 25.8906C102.352 25.9375 102.703 25.8789 103.148 25.7148C103.594 25.5273 104.027 25.2344 104.449 24.8359C104.895 24.4375 105.281 23.9336 105.609 23.3242C105.961 22.6914 106.172 21.9297 106.242 21.0391C106.312 20.1719 106.312 19.375 106.242 18.6484C106.195 17.9219 106.09 17.2891 105.926 16.75C105.762 16.1875 105.574 15.7305 105.363 15.3789C105.152 15.0273 104.93 14.7812 104.695 14.6406C104.297 14.4297 103.816 14.2656 103.254 14.1484C102.691 14.0078 102.211 14.0312 101.812 14.2188C101.625 14.3125 101.391 14.5117 101.109 14.8164C100.828 15.1211 100.547 15.5078 100.266 15.9766C99.9844 16.4219 99.7266 16.9375 99.4922 17.5234C99.2812 18.1094 99.1289 18.7188 99.0352 19.3516C98.9414 19.9844 98.918 20.6641 98.9648 21.3906C99.0352 22.1172 99.1875 22.8086 99.4219 23.4648C99.6562 24.0977 99.9844 24.6484 100.406 25.1172C100.852 25.5625 101.414 25.8203 102.094 25.8906ZM122.414 12.25C123.023 12.25 123.656 12.3672 124.312 12.6016C124.969 12.8125 125.602 13.0938 126.211 13.4453C126.82 13.7734 127.371 14.1367 127.863 14.5352C128.379 14.9102 128.801 15.2734 129.129 15.625C129.715 16.2578 130.113 17.1133 130.324 18.1914C130.559 19.2461 130.605 20.3359 130.465 21.4609C130.324 22.5625 129.996 23.6055 129.48 24.5898C128.965 25.5742 128.25 26.3008 127.336 26.7695C126.68 27.0977 126.035 27.3555 125.402 27.543C124.77 27.7305 124.16 27.8711 123.574 27.9648C122.988 28.0586 122.438 28.1055 121.922 28.1055C121.406 28.1055 120.961 28.0938 120.586 28.0703C119.883 28.0234 119.145 27.7773 118.371 27.332C117.621 26.8867 116.906 26.3359 116.227 25.6797C115.57 25.0234 115.008 24.3086 114.539 23.5352C114.07 22.7383 113.789 21.9883 113.695 21.2852C113.555 20.3242 113.531 19.3164 113.625 18.2617C113.719 17.207 114.059 16.2344 114.645 15.3438C115.254 14.4531 116.168 13.7148 117.387 13.1289C118.629 12.543 120.305 12.25 122.414 12.25ZM121.254 25.8906C121.512 25.9375 121.863 25.8789 122.309 25.7148C122.754 25.5273 123.188 25.2344 123.609 24.8359C124.055 24.4375 124.441 23.9336 124.77 23.3242C125.121 22.6914 125.332 21.9297 125.402 21.0391C125.473 20.1719 125.473 19.375 125.402 18.6484C125.355 17.9219 125.25 17.2891 125.086 16.75C124.922 16.1875 124.734 15.7305 124.523 15.3789C124.312 15.0273 124.09 14.7812 123.855 14.6406C123.457 14.4297 122.977 14.2656 122.414 14.1484C121.852 14.0078 121.371 14.0312 120.973 14.2188C120.785 14.3125 120.551 14.5117 120.27 14.8164C119.988 15.1211 119.707 15.5078 119.426 15.9766C119.145 16.4219 118.887 16.9375 118.652 17.5234C118.441 18.1094 118.289 18.7188 118.195 19.3516C118.102 19.9844 118.078 20.6641 118.125 21.3906C118.195 22.1172 118.348 22.8086 118.582 23.4648C118.816 24.0977 119.145 24.6484 119.566 25.1172C120.012 25.5625 120.574 25.8203 121.254 25.8906ZM149.414 1.07031C149.859 1.09375 150.34 1.10547 150.855 1.10547C151.301 1.10547 151.805 1.11719 152.367 1.14062C152.953 1.14062 153.562 1.11719 154.195 1.07031C153.633 1.32813 153.141 1.70312 152.719 2.19531C152.297 2.6875 151.957 3.17969 151.699 3.67188C151.371 4.25781 151.102 4.86719 150.891 5.5C150.773 5.875 150.68 6.54297 150.609 7.50391C150.539 8.44141 150.48 9.54297 150.434 10.8086C150.41 12.0742 150.398 13.4102 150.398 14.8164C150.398 16.2227 150.41 17.5703 150.434 18.8594C150.457 20.125 150.492 21.25 150.539 22.2344C150.586 23.2188 150.645 23.9102 150.715 24.3086C150.809 24.7773 150.926 25.2227 151.066 25.6445C151.184 26.0195 151.336 26.4062 151.523 26.8047C151.711 27.1797 151.945 27.4844 152.227 27.7188L148.641 29.3359C148.453 29.0781 148.301 28.8086 148.184 28.5273C148.066 28.2695 147.973 28.0352 147.902 27.8242C147.809 27.5664 147.75 27.332 147.727 27.1211C147.68 26.8398 147.633 26.5352 147.586 26.207C147.539 25.8555 147.48 25.5273 147.41 25.2227C147.363 24.8945 147.328 24.625 147.305 24.4141C147.281 24.2031 147.281 24.0742 147.305 24.0273C147.328 23.9805 147.188 24.1914 146.883 24.6602C146.578 25.1055 146.121 25.6328 145.512 26.2422C144.926 26.8281 144.199 27.4023 143.332 27.9648C142.465 28.5039 141.492 28.8438 140.414 28.9844C139.312 29.125 138.293 28.9141 137.355 28.3516C136.441 27.7891 135.656 27.0039 135 25.9961C134.344 24.9648 133.84 23.7812 133.488 22.4453C133.16 21.0859 133.031 19.7031 133.102 18.2969C133.148 17.3594 133.359 16.5273 133.734 15.8008C134.109 15.0508 134.578 14.4062 135.141 13.8672C135.727 13.3047 136.359 12.8359 137.039 12.4609C137.742 12.0625 138.422 11.7344 139.078 11.4766C139.758 11.2188 140.391 11.0312 140.977 10.9141C141.562 10.7969 142.031 10.7148 142.383 10.668C142.805 10.6445 143.285 10.7148 143.824 10.8789C144.293 11.0195 144.832 11.2539 145.441 11.582C146.074 11.9102 146.777 12.4023 147.551 13.0586C147.41 10.7148 147.281 8.83984 147.164 7.43359C147.047 6.00391 146.93 4.91406 146.812 4.16406C146.695 3.27344 146.59 2.66406 146.496 2.33594C146.379 2.10156 146.227 1.86719 146.039 1.63281C145.875 1.44531 145.664 1.25781 145.406 1.07031C145.172 0.859375 144.891 0.695313 144.562 0.578125C145.172 0.695313 145.758 0.777344 146.32 0.824219C146.883 0.871094 147.398 0.917969 147.867 0.964844C148.406 1.01172 148.922 1.04688 149.414 1.07031ZM140.59 14.1836C140.145 14.3477 139.781 14.6289 139.5 15.0273C139.242 15.4258 139.031 15.9062 138.867 16.4688C138.703 17.0078 138.586 17.5938 138.516 18.2266C138.469 18.8359 138.434 19.4336 138.41 20.0195C138.41 20.582 138.41 21.0977 138.41 21.5664C138.41 22.0352 138.41 22.3867 138.41 22.6211C138.41 22.7617 138.434 23.0195 138.48 23.3945C138.551 23.7461 138.691 24.1211 138.902 24.5195C139.113 24.8945 139.406 25.2344 139.781 25.5391C140.18 25.8438 140.707 25.9961 141.363 25.9961C141.902 25.9492 142.477 25.7617 143.086 25.4336C143.625 25.1523 144.234 24.707 144.914 24.0977C145.617 23.4648 146.367 22.5625 147.164 21.3906C147.117 20.6406 147.082 20.0195 147.059 19.5273C147.059 19.0352 147.047 18.6367 147.023 18.332C147 17.9805 146.988 17.6992 146.988 17.4883V16.9609C146.988 16.8203 146.988 16.668 146.988 16.5039C146.988 16.3398 147 16.1875 147.023 16.0469C146.367 15.5781 145.781 15.1797 145.266 14.8516C144.773 14.5 144.281 14.2422 143.789 14.0781C143.32 13.8906 142.828 13.8086 142.312 13.832C141.82 13.832 141.246 13.9492 140.59 14.1836Z" fill="url(#paint0_linear_2_11)"/>
<defs>
<linearGradient id="paint0_linear_2_11" x1="18" y1="12" x2="171" y2="12.5" gradientUnits="userSpaceOnUse">
<stop stop-color="white"/>
<stop offset="0.506" stop-color="#C77DFF"/>
</linearGradient>
</defs>
</svg>
